<svg width="164" height="137" viewBox="0 0 164 137" fill="none" xmlns="http://www.w3.org/2000/svg">
<path d="M164 137C140.087 137 116.173 137 91.5352 137C90.2142 134.235 90.2055 132.696 90.1781 129.626C90.1669 128.608 90.1556 127.59 90.1441 126.541C90.1391 125.434 90.1341 124.327 90.129 123.186C90.1224 122.039 90.1157 120.891 90.1088 119.709C90.0978 117.266 90.0901 114.824 90.0856 112.382C90.0744 108.707 90.0383 105.032 90.0012 101.357C89.8436 71.6419 95.7341 44.5351 115.947 22.3284C118.479 19.5818 118.479 19.5818 120.773 16.4417C122.967 13.6172 125.189 11.3633 127.841 9.02121C130.66 6.51829 133.371 3.99736 135.949 1.22323C140.507 2.81314 141.83 5.17552 144.788 9.09767C148.383 13.8789 148.383 13.8789 152.312 18.3482C151.906 22.3797 150.261 24.7438 147.856 27.8281C138.579 40.3947 136.048 52.5784 134.78 68.5C144.423 68.5 154.065 68.5 164 68.5C164 91.105 164 113.71 164 137Z" fill="#212121"/>
<path d="M74.0034 137C50.09 137 26.1767 137 1.53862 137C0.0143437 132.214 0.156724 125.19 0.132432 120.2C0.125765 119.135 0.119097 118.071 0.112245 116.974C0.101183 114.712 0.0935538 112.45 0.0890526 110.188C0.077853 106.789 0.0416594 103.391 0.00459613 99.993C-0.0700335 86.9564 0.74439 75.0332 3.8762 62.3839C4.2248 60.9406 4.2248 60.9406 4.58045 59.468C10.6232 36.2487 27.1637 13.9343 45.9525 4.93875e-06C50.7848 1.91869 53.6166 5.58848 56.8369 9.63282C57.383 10.2809 57.9292 10.9289 58.4919 11.5966C62.3156 16.3609 62.3156 16.3609 62.3156 19.7243C60.9035 22.4952 59.2348 24.6834 57.2752 27.0636C48.2149 38.9164 46.3527 52.4989 44.7837 67.2768C54.4262 67.2768 64.0687 67.2768 74.0034 67.2768C74.0034 89.4781 74.0034 114.126 74.0034 137Z" fill="#212121"/>
</svg>
