<svg width="74" height="137" viewBox="0 0 74 137" fill="none" xmlns="http://www.w3.org/2000/svg">
<path d="M74.0039 137C50.0905 137 26.1771 137 1.53911 137C0.0148321 132.214 0.157211 125.19 0.132921 120.2C0.126259 119.135 0.119598 118.071 0.112734 116.974C0.101684 114.712 0.0940415 112.45 0.0895409 110.188C0.0783373 106.789 0.0421491 103.391 0.00508441 99.993C-0.0695413 86.9564 0.744874 75.0332 3.87668 62.3839C4.22528 60.9406 4.2253 60.9406 4.58094 59.468C10.6237 36.2487 27.1642 13.9343 45.953 1.28065e-05C50.7853 1.9187 53.617 5.58849 56.8374 9.63283C57.3835 10.2809 57.9297 10.929 58.4924 11.5967C62.316 16.3609 62.316 16.3609 62.316 19.7243C60.904 22.4952 59.2353 24.6834 57.2757 27.0636C48.2154 38.9164 46.3532 52.4989 44.7842 67.2768C54.4267 67.2768 64.0692 67.2768 74.0039 67.2768C74.0039 89.4781 74.0039 114.126 74.0039 137Z" fill="#212121"/>
</svg>
