<svg width="18" height="25" viewBox="0 0 18 25" fill="none" xmlns="http://www.w3.org/2000/svg">
<path fill-rule="evenodd" clip-rule="evenodd" d="M4.98047 20.3077C4.42818 20.3077 3.98047 20.7554 3.98047 21.3077V21.5382C3.98047 23.195 5.32362 24.5382 6.98047 24.5382H14.5189C16.1758 24.5382 17.5189 23.195 17.5189 21.5382V7.23047C17.5189 5.57361 16.1758 4.23047 14.5189 4.23047H14.2885C13.7362 4.23047 13.2885 4.67818 13.2885 5.23047C13.2885 5.78275 13.7362 6.23047 14.2885 6.23047H14.5189C15.0712 6.23047 15.5189 6.67819 15.5189 7.23047V21.5382C15.5189 22.0904 15.0712 22.5382 14.5189 22.5382H6.98047C6.42818 22.5382 5.98047 22.0904 5.98047 21.5382V21.3077C5.98047 20.7554 5.53275 20.3077 4.98047 20.3077Z" fill="#646464"/>
<rect x="1.36719" y="1.23047" width="11.5385" height="18.3077" rx="2" stroke="#141414" stroke-width="2"/>
</svg>
